<svg width="22" height="22" viewBox="0 0 22 22" fill="none" xmlns="http://www.w3.org/2000/svg">
<path fill-rule="evenodd" clip-rule="evenodd" d="M18.6831 8.77638H20.3393C21.0761 8.77638 21.6735 9.37371 21.6735 10.1105V11.8894C21.6739 12.2436 21.5336 12.5834 21.2833 12.834C21.0331 13.0846 20.6934 13.2254 20.3393 13.2254H18.6831C18.5188 13.7946 18.2912 14.3435 18.0045 14.862L19.1759 16.0334C19.6967 16.5543 19.6967 17.3989 19.1759 17.9199L17.9182 19.1775C17.3972 19.6984 16.5527 19.6984 16.0317 19.1775L14.8594 18.0061C14.3411 18.2924 13.7925 18.52 13.2237 18.6848V20.3392C13.2237 21.076 12.6264 21.6733 11.8896 21.6733H10.1107C9.37383 21.6733 8.7765 21.076 8.7765 20.3392V18.6848C8.20746 18.5197 7.65855 18.2918 7.13993 18.0053L5.96764 19.1767C5.43799 19.677 4.60988 19.677 4.08024 19.1767L2.82256 17.919C2.30173 17.398 2.30173 16.5535 2.82256 16.0325L3.99574 14.8593C3.70891 14.3412 3.48126 13.7926 3.31709 13.2236H1.66095C0.924109 13.2236 0.326782 12.6263 0.326782 11.8894V10.1105C0.326782 9.37371 0.924109 8.77638 1.66095 8.77638H3.31709C3.48133 8.20774 3.70897 7.65936 3.99574 7.14158L2.82345 5.97018C2.57306 5.71995 2.43238 5.38048 2.43238 5.02648C2.43238 4.67249 2.57306 4.33301 2.82345 4.08278L4.08202 2.82511C4.60301 2.30427 5.44754 2.30427 5.96853 2.82511L7.14082 3.99651C7.65917 3.71029 8.20778 3.48267 8.7765 3.31786V1.66083C8.7765 0.923987 9.37383 0.32666 10.1107 0.32666H11.8896C12.6264 0.32666 13.2237 0.923987 13.2237 1.66083V3.31786C13.7923 3.48229 14.3407 3.70993 14.8585 3.99651L16.0308 2.82511C16.5518 2.30427 17.3963 2.30427 17.9173 2.82511L19.1759 4.08189C19.4263 4.33212 19.567 4.6716 19.567 5.02559C19.567 5.37959 19.4263 5.71907 19.1759 5.96929L18.0045 7.1398C18.2909 7.65839 18.5185 8.20731 18.6831 8.77638ZM6.55291 11C6.55291 13.4561 8.544 15.4472 11.0001 15.4472C13.455 15.4443 15.4444 13.4549 15.4474 11C15.4474 8.54386 13.4563 6.55277 11.0001 6.55277C8.544 6.55277 6.55291 8.54386 6.55291 11Z" fill="#FCFCFA"/>
</svg>
