<svg width="33" height="32" viewBox="0 0 33 32" fill="none" xmlns="http://www.w3.org/2000/svg">
<path fill-rule="evenodd" clip-rule="evenodd" d="M24.3498 13.7764H26.0059C26.7427 13.7764 27.3401 14.3737 27.3401 15.1105V16.8894C27.3405 17.2436 27.2002 17.5834 26.9499 17.834C26.6997 18.0845 26.3601 18.2254 26.0059 18.2254H24.3498C24.1854 18.7945 23.9578 19.3435 23.6711 19.8619L24.8425 21.0333C25.3633 21.5543 25.3633 22.3988 24.8425 22.9198L23.5848 24.1775C23.0638 24.6983 22.2193 24.6983 21.6983 24.1775L20.526 23.0061C20.0077 23.2924 19.4591 23.52 18.8904 23.6848V25.3391C18.8904 26.076 18.293 26.6733 17.5562 26.6733H15.7773C15.0405 26.6733 14.4431 26.076 14.4431 25.3391V23.6848C13.8741 23.5197 13.3252 23.2918 12.8066 23.0052L11.6343 24.1766C11.1046 24.677 10.2765 24.677 9.74686 24.1766L8.48919 22.9189C7.96835 22.398 7.96835 21.5534 8.48919 21.0324L9.66237 19.8593C9.37554 19.3412 9.14789 18.7925 8.98372 18.2236H7.32757C6.59073 18.2236 5.99341 17.6262 5.99341 16.8894V15.1105C5.99341 14.3737 6.59073 13.7764 7.32757 13.7764H8.98372C9.14795 13.2077 9.3756 12.6593 9.66237 12.1416L8.49008 10.9702C8.23969 10.7199 8.09901 10.3804 8.09901 10.0265C8.09901 9.67246 8.23969 9.33298 8.49008 9.08275L9.74864 7.82508C10.2696 7.30424 11.1142 7.30424 11.6352 7.82508L12.8074 8.99648C13.3258 8.71026 13.8744 8.48264 14.4431 8.31783V6.6608C14.4431 5.92396 15.0405 5.32663 15.7773 5.32663H17.5562C18.293 5.32663 18.8904 5.92396 18.8904 6.6608V8.31783C19.4589 8.48226 20.0073 8.7099 20.5252 8.99648L21.6974 7.82508C22.2184 7.30424 23.063 7.30424 23.584 7.82508L24.8425 9.08186C25.0929 9.33209 25.2336 9.67157 25.2336 10.0256C25.2336 10.3796 25.0929 10.719 24.8425 10.9693L23.6711 12.1398C23.9575 12.6584 24.1851 13.2073 24.3498 13.7764ZM12.2195 16C12.2195 18.4561 14.2106 20.4472 16.6668 20.4472C19.1217 20.4442 21.111 18.4549 21.114 16C21.114 13.5438 19.1229 11.5527 16.6668 11.5527C14.2106 11.5527 12.2195 13.5438 12.2195 16Z" fill="#FCFCFA"/>
<mask id="mask0_223_3807" style="mask-type:alpha" maskUnits="userSpaceOnUse" x="5" y="5" width="23" height="22">
<path fill-rule="evenodd" clip-rule="evenodd" d="M24.3498 13.7764H26.0059C26.7427 13.7764 27.3401 14.3737 27.3401 15.1105V16.8894C27.3405 17.2436 27.2002 17.5834 26.9499 17.834C26.6997 18.0845 26.3601 18.2254 26.0059 18.2254H24.3498C24.1854 18.7945 23.9578 19.3435 23.6711 19.8619L24.8425 21.0333C25.3633 21.5543 25.3633 22.3988 24.8425 22.9198L23.5848 24.1775C23.0638 24.6983 22.2193 24.6983 21.6983 24.1775L20.526 23.0061C20.0077 23.2924 19.4591 23.52 18.8904 23.6848V25.3391C18.8904 26.076 18.293 26.6733 17.5562 26.6733H15.7773C15.0405 26.6733 14.4431 26.076 14.4431 25.3391V23.6848C13.8741 23.5197 13.3252 23.2918 12.8066 23.0052L11.6343 24.1766C11.1046 24.677 10.2765 24.677 9.74686 24.1766L8.48919 22.9189C7.96835 22.398 7.96835 21.5534 8.48919 21.0324L9.66237 19.8593C9.37554 19.3412 9.14789 18.7925 8.98372 18.2236H7.32757C6.59073 18.2236 5.99341 17.6262 5.99341 16.8894V15.1105C5.99341 14.3737 6.59073 13.7764 7.32757 13.7764H8.98372C9.14795 13.2077 9.3756 12.6593 9.66237 12.1416L8.49008 10.9702C8.23969 10.7199 8.09901 10.3804 8.09901 10.0265C8.09901 9.67246 8.23969 9.33298 8.49008 9.08275L9.74864 7.82508C10.2696 7.30424 11.1142 7.30424 11.6352 7.82508L12.8074 8.99648C13.3258 8.71026 13.8744 8.48264 14.4431 8.31783V6.6608C14.4431 5.92396 15.0405 5.32663 15.7773 5.32663H17.5562C18.293 5.32663 18.8904 5.92396 18.8904 6.6608V8.31783C19.4589 8.48226 20.0073 8.7099 20.5252 8.99648L21.6974 7.82508C22.2184 7.30424 23.063 7.30424 23.584 7.82508L24.8425 9.08186C25.0929 9.33209 25.2336 9.67157 25.2336 10.0256C25.2336 10.3796 25.0929 10.719 24.8425 10.9693L23.6711 12.1398C23.9575 12.6584 24.1851 13.2073 24.3498 13.7764ZM12.2195 16C12.2195 18.4561 14.2106 20.4472 16.6668 20.4472C19.1217 20.4442 21.111 18.4549 21.114 16C21.114 13.5438 19.1229 11.5527 16.6668 11.5527C14.2106 11.5527 12.2195 13.5438 12.2195 16Z" fill="white"/>
</mask>
<g mask="url(#mask0_223_3807)">
</g>
</svg>
